<svg xmlns="http://www.w3.org/2000/svg" width="308.36" height="80.52" viewBox="0 0 308.36 80.52"><defs><style>.cls-1{fill:#eaeaea;}</style></defs><title>car_repair2</title><g id="レイヤー_2" data-name="レイヤー 2"><g id="OBJECTS"><path class="cls-1" d="M33.59,59.67v1.78a1.79,1.79,0,0,0-1.29.76A3.21,3.21,0,0,0,31.87,64V76.79a2.08,2.08,0,0,0,.14.71,2.43,2.43,0,0,0,.36.64,1.46,1.46,0,0,0,.5.42,2.12,2.12,0,0,0,.72.17v1.79a8.35,8.35,0,0,1-5-1.48,8,8,0,0,1-2.79-3.52,14.72,14.72,0,0,1-.33-9.37,9.66,9.66,0,0,1,1.77-3.33,9.2,9.2,0,0,1,2.81-2.3,6.83,6.83,0,0,1,3.15-.86Zm1.16,1.8V59.69a10,10,0,0,1,1.17.25c.3.09.84.27,1.63.56a4,4,0,0,0,1,.26.71.71,0,0,0,.65-.38l.19-.35a.67.67,0,0,1,.66-.36.76.76,0,0,1,.61.24.94.94,0,0,1,.22.69v6.11a1.14,1.14,0,0,1-.27.85.83.83,0,0,1-.6.27.76.76,0,0,1-.57-.23,1.76,1.76,0,0,1-.34-.74,13.78,13.78,0,0,0-.6-1.82,8.87,8.87,0,0,0-1.44-2.27,5,5,0,0,0-1.09-.9A3.15,3.15,0,0,0,34.75,61.47Zm0,19V78.73a5.49,5.49,0,0,0,2.41-.87,4.41,4.41,0,0,0,1.2-1.13,5.42,5.42,0,0,0,.8-1.57,1.6,1.6,0,0,1,.34-.67.72.72,0,0,1,.52-.2.75.75,0,0,1,.59.27.94.94,0,0,1,.24.66,3.53,3.53,0,0,1-.51,1.6,7.45,7.45,0,0,1-1.3,1.74,7.3,7.3,0,0,1-2,1.44A6.21,6.21,0,0,1,34.8,80.52Z"/><path class="cls-1" d="M52.49,63.8l.75,3-2.6,9.5a2.72,2.72,0,0,0-.12.76,1.35,1.35,0,0,0,.87,1.32l.51.24a.74.74,0,0,1,.49.73c0,.49-.36.74-1.07.74H47.58a1.46,1.46,0,0,1-.86-.23.72.72,0,0,1-.31-.62c0-.29.21-.52.64-.71a4.81,4.81,0,0,0,.89-.48,2.6,2.6,0,0,0,.56-.58,5.34,5.34,0,0,0,.67-1.6Zm1-3.73h5.92l4.08,17.27a5.74,5.74,0,0,0,.27.8,1,1,0,0,0,.59.46,1.61,1.61,0,0,1,.52.32.63.63,0,0,1,.15.44c0,.51-.38.77-1.15.77H56.56a1,1,0,0,1-.7-.22.77.77,0,0,1-.15-1,1.82,1.82,0,0,1,.53-.37,1.19,1.19,0,0,0,.41-.32.78.78,0,0,0,.12-.44,1.84,1.84,0,0,0-.05-.44l-.47-2.14h-4.1l.4-1.74h3.29l-2.7-11.95Z"/><path class="cls-1" d="M78.78,60.07V77.34a1.28,1.28,0,0,0,.22.82.54.54,0,0,0,.22.18c.07,0,.3.09.68.19a.77.77,0,0,1,.71.8.7.7,0,0,1-.39.62,1.74,1.74,0,0,1-.92.18H71.86a1.42,1.42,0,0,1-.81-.2.65.65,0,0,1-.29-.57.77.77,0,0,1,.59-.79c.32-.11.51-.17.56-.2s.11-.08.17-.17a1.21,1.21,0,0,0,.18-.75V62.74a1.26,1.26,0,0,0-.18-.75.42.42,0,0,0-.17-.16,4.16,4.16,0,0,0-.56-.2.78.78,0,0,1-.59-.8.65.65,0,0,1,.29-.56,1.42,1.42,0,0,1,.81-.2h6.92ZM83.3,70.3a12.78,12.78,0,0,1,2.08.45,4.93,4.93,0,0,1,1.31.68,3.09,3.09,0,0,1,1,1.09A2.82,2.82,0,0,1,88,73.85v3c0,.32.1.47.31.47a.34.34,0,0,0,.2-.06A2.74,2.74,0,0,0,88.7,77a1,1,0,0,1,.75-.5.68.68,0,0,1,.5.27.75.75,0,0,1,.25.53,2.09,2.09,0,0,1-.43,1.1,5,5,0,0,1-1.08,1.17,3.7,3.7,0,0,1-1.31.7,5.83,5.83,0,0,1-1.66.21,4.06,4.06,0,0,1-3-1.11,4.23,4.23,0,0,1-1.08-3.09V73.85c0-.55,0-.86,0-.95a2.1,2.1,0,0,0-.41-1,1.79,1.79,0,0,0-1.22-.6V69.71a2.29,2.29,0,0,0,1.13-.41,1.44,1.44,0,0,0,.41-.61,3.45,3.45,0,0,0,.11-1V63.8a2.19,2.19,0,0,0-.36-1.38A2.6,2.6,0,0,0,80,61.7V60.07h.38a27.14,27.14,0,0,1,2.77.12,6.16,6.16,0,0,1,3.05,1.11,4.5,4.5,0,0,1,1.92,3.9,4.65,4.65,0,0,1-1.29,3.39,4.46,4.46,0,0,1-1.27.91A16.31,16.31,0,0,1,83.3,70.3Z"/><path class="cls-1" d="M116.38,60.07V77.34a1.22,1.22,0,0,0,.22.82.48.48,0,0,0,.22.18c.07,0,.29.09.68.19a.77.77,0,0,1,.7.8.71.71,0,0,1-.38.62,1.81,1.81,0,0,1-.93.18h-7.43a1.44,1.44,0,0,1-.82-.2.64.64,0,0,1-.28-.57.76.76,0,0,1,.58-.79c.33-.11.52-.17.57-.2a.45.45,0,0,0,.17-.17,1.22,1.22,0,0,0,.17-.75V62.74a1.26,1.26,0,0,0-.17-.75.49.49,0,0,0-.17-.16,4,4,0,0,0-.57-.2.78.78,0,0,1-.58-.8.64.64,0,0,1,.28-.56,1.44,1.44,0,0,1,.82-.2h6.92Zm4.51,10.23a12.78,12.78,0,0,1,2.08.45,4.93,4.93,0,0,1,1.31.68,3,3,0,0,1,1,1.09,2.82,2.82,0,0,1,.33,1.33v3c0,.32.11.47.31.47a.32.32,0,0,0,.2-.06,2.48,2.48,0,0,0,.23-.26,1,1,0,0,1,.75-.5.72.72,0,0,1,.5.27.79.79,0,0,1,.25.53,2.12,2.12,0,0,1-.44,1.1,5,5,0,0,1-1.08,1.17,3.66,3.66,0,0,1-1.3.7,6,6,0,0,1-1.67.21,4,4,0,0,1-3-1.11,4.19,4.19,0,0,1-1.09-3.09V73.85c0-.55,0-.86,0-.95a2,2,0,0,0-.42-1,1.77,1.77,0,0,0-1.22-.6V69.71a2.37,2.37,0,0,0,1.14-.41,1.41,1.41,0,0,0,.4-.61,3.45,3.45,0,0,0,.11-1V63.8a2.19,2.19,0,0,0-.36-1.38,2.51,2.51,0,0,0-1.3-.72V60.07h.38a27.35,27.35,0,0,1,2.78.12,6.09,6.09,0,0,1,3,1.11,4.51,4.51,0,0,1,1.93,3.9,4.65,4.65,0,0,1-1.3,3.39,4.33,4.33,0,0,1-1.27.91A15.34,15.34,0,0,1,120.89,70.3Z"/><path class="cls-1" d="M141.94,60.07V80.13H135a1.42,1.42,0,0,1-.81-.2.65.65,0,0,1-.29-.57.77.77,0,0,1,.59-.79l.57-.2a.45.45,0,0,0,.17-.17,1.3,1.3,0,0,0,.17-.75V62.74a1.34,1.34,0,0,0-.17-.75.49.49,0,0,0-.17-.16,5.4,5.4,0,0,0-.57-.2.78.78,0,0,1-.59-.8.65.65,0,0,1,.29-.56,1.42,1.42,0,0,1,.81-.2h6.93Zm1.23,10.7V69.06a3.71,3.71,0,0,0,1.26-.89,3.08,3.08,0,0,0,.61-1.3,1.71,1.71,0,0,1,.31-.77.67.67,0,0,1,.54-.21.66.66,0,0,1,.65.37,2.38,2.38,0,0,1,.1.86v5.6a2,2,0,0,1-.16,1,.6.6,0,0,1-.56.26.71.71,0,0,1-.53-.2,1.58,1.58,0,0,1-.31-.7,3.79,3.79,0,0,0-.71-1.55A2.13,2.13,0,0,0,143.17,70.77Zm.07-10.7h5.93v5.2a1,1,0,0,1-.18.66.69.69,0,0,1-.56.21A.75.75,0,0,1,148,66a1.3,1.3,0,0,1-.28-.55,5.53,5.53,0,0,0-1.64-2.6,5.07,5.07,0,0,0-2.8-1.07Zm0,20.06V78.54a6.67,6.67,0,0,0,1.58-.41,5.09,5.09,0,0,0,1.25-.81,5.17,5.17,0,0,0,1-1.12,7.23,7.23,0,0,0,.71-1.54,1.67,1.67,0,0,1,.34-.64.69.69,0,0,1,.49-.17.62.62,0,0,1,.57.25,1.57,1.57,0,0,1,.16.84v5.19Z"/><path class="cls-1" d="M164.11,60.07V77.34a1.28,1.28,0,0,0,.22.82.54.54,0,0,0,.22.18c.07,0,.3.09.68.19a.77.77,0,0,1,.71.8.7.7,0,0,1-.39.62,1.74,1.74,0,0,1-.92.18h-7.44a1.42,1.42,0,0,1-.81-.2.65.65,0,0,1-.29-.57.77.77,0,0,1,.59-.79c.32-.11.51-.17.56-.2s.11-.08.17-.17a1.21,1.21,0,0,0,.18-.75V62.74a1.26,1.26,0,0,0-.18-.75.42.42,0,0,0-.17-.16,4.16,4.16,0,0,0-.56-.2.78.78,0,0,1-.59-.8.65.65,0,0,1,.29-.56,1.42,1.42,0,0,1,.81-.2h6.92Zm1.25,12.37V70.87a3.14,3.14,0,0,0,.89-.31,1.39,1.39,0,0,0,.45-.5,3.19,3.19,0,0,0,.31-1.54v-4.7a4.2,4.2,0,0,0-.1-1,1.37,1.37,0,0,0-.42-.62,2,2,0,0,0-1.14-.51V60.07a12.91,12.91,0,0,1,4.46.57,5.51,5.51,0,0,1,3.62,5.45,6.35,6.35,0,0,1-1,3.71,5.84,5.84,0,0,1-2.79,2.1A13.13,13.13,0,0,1,165.36,72.44Z"/><path class="cls-1" d="M184.63,63.8l.75,3-2.6,9.5a2.72,2.72,0,0,0-.12.76,1.35,1.35,0,0,0,.87,1.32l.51.24a.74.74,0,0,1,.49.73c0,.49-.36.74-1.07.74h-3.74a1.46,1.46,0,0,1-.86-.23.72.72,0,0,1-.31-.62c0-.29.21-.52.64-.71a5.18,5.18,0,0,0,.89-.48,2.37,2.37,0,0,0,.55-.58,5.09,5.09,0,0,0,.68-1.6Zm1-3.73h5.93l4.08,17.27a5.74,5.74,0,0,0,.27.8,1,1,0,0,0,.58.46,1.69,1.69,0,0,1,.53.32.63.63,0,0,1,.15.44c0,.51-.38.77-1.15.77H188.7a1,1,0,0,1-.7-.22.77.77,0,0,1-.15-1,1.82,1.82,0,0,1,.53-.37,1.19,1.19,0,0,0,.41-.32.78.78,0,0,0,.12-.44,1.84,1.84,0,0,0,0-.44l-.47-2.14h-4.1l.4-1.74H188l-2.7-11.95Z"/><path class="cls-1" d="M210.94,80.13H204a1.48,1.48,0,0,1-.82-.2.64.64,0,0,1-.28-.57.76.76,0,0,1,.59-.79c.32-.11.51-.17.56-.2s.11-.08.17-.17a1.21,1.21,0,0,0,.18-.75V62.74a1.26,1.26,0,0,0-.18-.75.42.42,0,0,0-.17-.16,4.16,4.16,0,0,0-.56-.2.77.77,0,0,1-.59-.8.64.64,0,0,1,.28-.56,1.48,1.48,0,0,1,.82-.2h7.32a1.42,1.42,0,0,1,.81.2.62.62,0,0,1,.29.56.78.78,0,0,1-.59.8,4.16,4.16,0,0,0-.56.2.42.42,0,0,0-.17.16,1.26,1.26,0,0,0-.18.75V77.45a1.21,1.21,0,0,0,.18.75c.06.09.11.15.17.17s.24.09.56.2a.77.77,0,0,1,.59.79.63.63,0,0,1-.29.57,1.42,1.42,0,0,1-.81.2Z"/><path class="cls-1" d="M227.37,60.07V77.34a1.22,1.22,0,0,0,.22.82.48.48,0,0,0,.22.18c.07,0,.29.09.67.19a.77.77,0,0,1,.71.8.71.71,0,0,1-.38.62,1.81,1.81,0,0,1-.93.18h-7.43a1.44,1.44,0,0,1-.82-.2.65.65,0,0,1-.29-.57.77.77,0,0,1,.59-.79l.57-.2a.45.45,0,0,0,.17-.17,1.22,1.22,0,0,0,.17-.75V62.74a1.26,1.26,0,0,0-.17-.75.49.49,0,0,0-.17-.16,4.6,4.6,0,0,0-.57-.2.78.78,0,0,1-.59-.8.65.65,0,0,1,.29-.56,1.44,1.44,0,0,1,.82-.2h6.92Zm4.51,10.23a12.78,12.78,0,0,1,2.08.45,4.93,4.93,0,0,1,1.31.68,3,3,0,0,1,.95,1.09,2.82,2.82,0,0,1,.33,1.33v3c0,.32.11.47.31.47a.34.34,0,0,0,.2-.06,2.48,2.48,0,0,0,.23-.26,1,1,0,0,1,.75-.5.72.72,0,0,1,.5.27.79.79,0,0,1,.25.53,2.12,2.12,0,0,1-.44,1.1,5,5,0,0,1-1.08,1.17,3.7,3.7,0,0,1-1.31.7,5.83,5.83,0,0,1-1.66.21,4,4,0,0,1-3-1.11,4.19,4.19,0,0,1-1.09-3.09V73.85c0-.55,0-.86,0-.95a1.93,1.93,0,0,0-.41-1,1.77,1.77,0,0,0-1.22-.6V69.71a2.29,2.29,0,0,0,1.13-.41,1.35,1.35,0,0,0,.41-.61,3.45,3.45,0,0,0,.11-1V63.8a2.19,2.19,0,0,0-.36-1.38,2.51,2.51,0,0,0-1.3-.72V60.07h.38a27.35,27.35,0,0,1,2.78.12,6.13,6.13,0,0,1,3,1.11,4.51,4.51,0,0,1,1.93,3.9,4.65,4.65,0,0,1-1.3,3.39,4.33,4.33,0,0,1-1.27.91A15.34,15.34,0,0,1,231.88,70.3Z"/><path class="cls-1" d="M.06,61.49C-1,62.77,12.43,33.36,61.43,28.36S157.68-7.36,199.18,1.64s49.25,14.72,49.25,14.72,55.25,6,59.5,10-25,45-25,45,10.75-26.22,9.5-34.86-36-9.39-55.75-5.14-65.25,16.25-87.25,15.5-36-8.75-36-8.75,30.5,5.75,57.5.75,56.75-17,53.25-20.75-33.5-10.75-50.5-9-76.25,22.5-103.75,25S16.93,41.49.06,61.49Z"/><path class="cls-1" d="M.06,61.49C-1,62.77,12.43,33.36,61.43,28.36S157.68-7.36,199.18,1.64s49.25,14.72,49.25,14.72,55.25,6,59.5,10-25,45-25,45,10.75-26.22,9.5-34.86-36-9.39-55.75-5.14-65.25,16.25-87.25,15.5-36-8.75-36-8.75,30.5,5.75,57.5.75,56.75-17,53.25-20.75-33.5-10.75-50.5-9-76.25,22.5-103.75,25S16.93,41.49.06,61.49Z"/></g></g></svg>